<svg xmlns="http://www.w3.org/2000/svg" viewBox="0 0 209.54 19.09"><defs><style>.cls-1{fill:#02ff38;}</style></defs><title>Fichier 3</title><g id="Calque_2" data-name="Calque 2"><g id="Calque_1-2" data-name="Calque 1"><path class="cls-1" d="M9.81,1.83A5.12,5.12,0,0,0,6.19.54,5.34,5.34,0,0,0,2.67,1.85,5.5,5.5,0,0,0,.87,5.07,4.9,4.9,0,0,0,.92,6.9a6.81,6.81,0,0,0,.69,1.71A10.12,10.12,0,0,0,7.46,13a20.72,20.72,0,0,0,7.66.22q15.81-1.89,31.49-4.64l15.7-2.7A113.83,113.83,0,0,1,78.24,4,32.7,32.7,0,0,1,94,7.2a23.26,23.26,0,0,1,10.82,11.52,24.56,24.56,0,0,0-4.75-6.31,23.36,23.36,0,0,0-6.5-4.33A32.51,32.51,0,0,0,78.3,5.52,122.06,122.06,0,0,0,62.64,7.78l-15.7,2.8c-5.25.87-10.5,1.71-15.78,2.43S20.57,14.29,15.28,14.8a21.67,21.67,0,0,1-8.16-.51,10.46,10.46,0,0,1-3.69-2A10.34,10.34,0,0,1,.76,9.07a7.47,7.47,0,0,1-.69-2A5.86,5.86,0,0,1,.13,4.93,6.21,6.21,0,0,1,2.34,1.44,5.67,5.67,0,0,1,9.81,1.83Z"/><circle class="cls-1" cx="7.05" cy="4.82" r="4.58"/><path class="cls-1" d="M199.71,1.63a5.68,5.68,0,0,1,7.47-.44,6.28,6.28,0,0,1,2.23,3.47,5.91,5.91,0,0,1,.07,2.14,7.45,7.45,0,0,1-.68,2A10.22,10.22,0,0,1,206.15,12a10.66,10.66,0,0,1-3.67,2,21.55,21.55,0,0,1-8.17.56c-5.29-.48-10.61-1-15.88-1.69s-10.55-1.5-15.8-2.34L146.91,7.89a122,122,0,0,0-15.66-2.16A32.55,32.55,0,0,0,116,8.38a23.35,23.35,0,0,0-6.47,4.37,24.8,24.8,0,0,0-4.71,6.34A23.22,23.22,0,0,1,115.56,7.5a32.67,32.67,0,0,1,15.73-3.33A111,111,0,0,1,147.23,6L163,8.62c10.48,1.76,21,3.27,31.51,4.46a20.49,20.49,0,0,0,7.66-.27A10,10,0,0,0,208,8.35a6.64,6.64,0,0,0,.68-1.71,5.11,5.11,0,0,0,0-1.83,5.55,5.55,0,0,0-1.83-3.21A5.32,5.32,0,0,0,203.32.31,5.09,5.09,0,0,0,199.71,1.63Z"/><circle class="cls-1" cx="202.49" cy="4.6" r="4.58"/></g></g></svg>