<svg xmlns="http://www.w3.org/2000/svg" viewBox="0 0 58.81 48"><defs><style>.cls-1{fill:#0ce878;}</style></defs><title>Fichier 6</title><g id="Calque_2" data-name="Calque 2"><g id="Calque_1-2" data-name="Calque 1"><path class="cls-1" d="M49,0H9.8C4.41,0,0,3.6,0,8V40c0,4.4,4.41,8,9.8,8H49c5.4,0,9.8-3.6,9.8-8V8C58.81,3.6,54.41,0,49,0ZM14.7,12H44.11a4.38,4.38,0,0,1,1.5.26L29.41,27.69,13.2,12.26A4.42,4.42,0,0,1,14.7,12ZM11,33V15a1.21,1.21,0,0,1,0-.19L21.81,25.07l-10.66,8.7A2.53,2.53,0,0,1,11,33Zm33.08,3H14.7a4.83,4.83,0,0,1-.94-.1l10.46-8.54,5.19,4.94,5.2-4.94L45.07,35.9a4.32,4.32,0,0,1-1,.1Zm3.68-3a2.49,2.49,0,0,1-.13.77L37,25.07,47.78,14.81c0,.06,0,.13,0,.19Z"/></g></g></svg>