<svg xmlns="http://www.w3.org/2000/svg" viewBox="0 0 56.25 60"><defs><style>.cls-1{fill:#0ce878;}</style></defs><title>Fichier 10</title><g id="Calque_2" data-name="Calque 2"><g id="Calque_1-2" data-name="Calque 1"><path class="cls-1" d="M18.75,22.5h7.5V30h-7.5ZM30,22.5h7.5V30H30Zm11.25,0h7.5V30h-7.5ZM7.5,45H15v7.5H7.5Zm11.25,0h7.5v7.5h-7.5ZM30,45h7.5v7.5H30ZM18.75,33.75h7.5v7.5h-7.5Zm11.25,0h7.5v7.5H30Zm11.25,0h7.5v7.5h-7.5Zm-33.75,0H15v7.5H7.5ZM48.75,0V3.75h-7.5V0H15V3.75H7.5V0H0V60H56.25V0ZM52.5,56.25H3.75V15H52.5Z"/></g></g></svg>