<svg xmlns="http://www.w3.org/2000/svg" viewBox="0 0 36.72 25.22"><defs><style>.cls-1{fill:#0db6ff;}</style></defs><title>Fichier 7</title><g id="Calque_2" data-name="Calque 2"><g id="Calque_1-2" data-name="Calque 1"><path class="cls-1" d="M8.06,9.17a8,8,0,1,1-8,8l0-1.14A16,16,0,0,1,16.05,0V4.58A11.42,11.42,0,0,0,7.94,7.94,11,11,0,0,0,6.8,9.27a7.48,7.48,0,0,1,1.26-.1Zm20.63,0a8,8,0,1,1-8,8l0-1.14A16,16,0,0,1,36.68,0V4.58a11.43,11.43,0,0,0-8.11,3.36,12,12,0,0,0-1.14,1.33,7.48,7.48,0,0,1,1.26-.1Z"/></g></g></svg>